<?xml version="1.0" standalone="no"?>
<!DOCTYPE svg PUBLIC "-//W3C//DTD SVG 20010904//EN"
 "http://www.w3.org/TR/2001/REC-SVG-20010904/DTD/svg10.dtd">
<svg version="1.0" xmlns="http://www.w3.org/2000/svg"
 width="512.000000pt" height="512.000000pt" viewBox="0 0 512.000000 512.000000"
 preserveAspectRatio="xMidYMid meet">
<metadata>
Created by potrace 1.14, written by Peter Selinger 2001-2017
</metadata>
<g transform="translate(0.000000,512.000000) scale(0.100000,-0.100000)"
fill="#000000" stroke="none">
<path d="M3340 4736 c-25 -7 -63 -21 -85 -31 -44 -21 -150 -122 -159 -153 -7
-20 -7 -20 -59 1 -38 15 -73 20 -132 19 -117 -2 -200 -38 -276 -119 -42 -45
-49 -48 -97 -50 -175 -6 -343 -151 -365 -316 -3 -24 -14 -45 -30 -57 -38 -30
-93 -119 -111 -179 -21 -72 -20 -155 2 -223 l18 -55 -56 -51 c-32 -28 -65 -67
-74 -86 -16 -34 -30 -49 -51 -52 -5 -1 -28 -5 -49 -8 -67 -11 -164 -64 -221
-122 -88 -88 -128 -184 -129 -309 0 -100 7 -136 42 -206 l29 -55 -45 -49 c-56
-63 -90 -137 -99 -216 -6 -57 -9 -64 -54 -105 -26 -25 -60 -69 -75 -98 -27
-52 -53 -74 -154 -129 -19 -11 -42 -25 -50 -32 -8 -6 -55 -36 -104 -65 -71
-43 -92 -51 -105 -42 -104 73 -158 85 -192 43 -15 -18 -23 -19 -68 -12 -29 4
-64 7 -79 5 -67 -7 -118 -17 -135 -25 -13 -8 -24 -5 -44 10 -34 28 -61 26
-108 -6 -132 -90 -214 -242 -220 -410 -6 -150 45 -282 149 -388 57 -57 88 -76
236 -145 10 -5 14 -17 11 -36 -16 -107 -1 -214 45 -312 64 -139 214 -258 366
-290 46 -9 174 -9 213 1 11 3 34 8 50 12 55 13 160 78 215 134 124 124 167
261 147 470 -2 20 15 34 114 96 l116 73 59 -20 c83 -28 197 -22 279 15 58 27
59 28 85 9 72 -53 215 -72 309 -40 79 26 131 60 181 116 l44 51 25 -18 c14
-10 42 -23 61 -30 29 -9 40 -21 63 -72 77 -165 252 -251 437 -215 77 15 199
102 236 168 5 9 20 19 34 21 61 12 89 21 141 50 l56 30 33 -23 c52 -37 140
-60 217 -56 139 7 260 83 324 202 18 33 28 41 51 42 77 2 168 49 239 123 48
50 64 60 106 68 164 32 257 140 257 301 -1 55 -6 88 -23 125 l-22 51 20 44
c11 25 22 59 25 75 3 17 13 35 23 40 10 6 45 37 79 70 45 45 67 77 84 120 53
143 21 314 -79 409 l-29 28 20 55 c22 63 23 161 2 231 -6 23 -8 44 -3 47 22
14 79 115 94 167 23 81 17 118 -22 143 -23 15 -33 30 -37 60 -9 58 -47 133
-95 187 -30 34 -41 53 -36 67 19 60 -66 112 -205 125 -45 5 -59 11 -75 33 -53
74 -133 133 -217 162 -46 16 -51 21 -73 75 -31 76 -68 132 -122 182 -93 88
-248 133 -379 110 -38 -7 -42 -5 -47 16 -4 13 -6 24 -6 26 0 2 -19 26 -41 55
-48 60 -133 122 -193 138 -59 17 -154 19 -207 5z"/>
</g>
</svg>
